999
"DXF R12 Output" (www.mydxf.blogspot.com)
 0 
SECTION
 2 
HEADER
 9 
$ACADVER
 1 
AC1009
 9 
$EXTMIN
 10 
 0 
 20 
 0 
 9 
$EXTMAX
 10 
 8.5 
 20 
 11 
 0 
ENDSEC
 0 
SECTION
 2 
ENTITIES
0
POLYLINE
8
Layer 1
62
7
70
0
10
0.000000
20
0.000000
66
1
0
VERTEX
8
Layer 1
10
5.099979
20
85.099729
70
0
0
VERTEX
8
Layer 1
10
185.099980
20
85.099729
70
0
0
VERTEX
8
Layer 1
10
186.110117
20
84.998499
70
0
0
VERTEX
8
Layer 1
10
187.049824
20
84.708010
70
0
0
VERTEX
8
Layer 1
10
187.899296
20
84.248069
70
0
0
VERTEX
8
Layer 1
10
188.638730
20
83.638479
70
0
0
VERTEX
8
Layer 1
10
189.248320
20
82.899045
70
0
0
VERTEX
8
Layer 1
10
189.708261
20
82.049573
70
0
0
VERTEX
8
Layer 1
10
189.998750
20
81.109866
70
0
0
VERTEX
8
Layer 1
10
190.099980
20
80.099729
70
0
0
VERTEX
8
Layer 1
10
190.099980
20
5.099730
70
0
0
VERTEX
8
Layer 1
10
189.998750
20
4.089593
70
0
0
VERTEX
8
Layer 1
10
189.708261
20
3.149886
70
0
0
VERTEX
8
Layer 1
10
189.248320
20
2.300414
70
0
0
VERTEX
8
Layer 1
10
188.638730
20
1.560980
70
0
0
VERTEX
8
Layer 1
10
187.899296
20
0.951390
70
0
0
VERTEX
8
Layer 1
10
187.049824
20
0.491449
70
0
0
VERTEX
8
Layer 1
10
186.110117
20
0.200960
70
0
0
VERTEX
8
Layer 1
10
185.099980
20
0.099730
70
0
0
VERTEX
8
Layer 1
10
5.099979
20
0.099730
70
0
0
VERTEX
8
Layer 1
10
4.089842
20
0.200960
70
0
0
VERTEX
8
Layer 1
10
3.150135
20
0.491449
70
0
0
VERTEX
8
Layer 1
10
2.300663
20
0.951390
70
0
0
VERTEX
8
Layer 1
10
1.561229
20
1.560980
70
0
0
VERTEX
8
Layer 1
10
0.951639
20
2.300414
70
0
0
VERTEX
8
Layer 1
10
0.491698
20
3.149886
70
0
0
VERTEX
8
Layer 1
10
0.201209
20
4.089593
70
0
0
VERTEX
8
Layer 1
10
0.099979
20
5.099730
70
0
0
VERTEX
8
Layer 1
10
0.099979
20
80.099729
70
0
0
VERTEX
8
Layer 1
10
0.201209
20
81.109866
70
0
0
VERTEX
8
Layer 1
10
0.491698
20
82.049573
70
0
0
VERTEX
8
Layer 1
10
0.951639
20
82.899045
70
0
0
VERTEX
8
Layer 1
10
1.561229
20
83.638479
70
0
0
VERTEX
8
Layer 1
10
2.300663
20
84.248069
70
0
0
VERTEX
8
Layer 1
10
3.150135
20
84.708010
70
0
0
VERTEX
8
Layer 1
10
4.089842
20
84.998499
70
0
0
VERTEX
8
Layer 1
10
5.099979
20
85.099729
70
0
0
VERTEX
8
Layer 1
10
5.099979
20
85.099729
70
0
0
SEQEND
8
Layer 1
0
POLYLINE
8
Layer 1
62
7
70
0
10
0.000000
20
0.000000
66
1
0
VERTEX
8
Layer 1
10
50.714980
20
67.615132
70
0
0
VERTEX
8
Layer 1
10
50.600799
20
67.041107
70
0
0
VERTEX
8
Layer 1
10
50.275640
20
66.554472
70
0
0
VERTEX
8
Layer 1
10
49.789005
20
66.229313
70
0
0
VERTEX
8
Layer 1
10
49.214980
20
66.115132
70
0
0
VERTEX
8
Layer 1
10
48.640955
20
66.229313
70
0
0
VERTEX
8
Layer 1
10
48.154320
20
66.554472
70
0
0
VERTEX
8
Layer 1
10
47.829161
20
67.041107
70
0
0
VERTEX
8
Layer 1
10
47.714980
20
67.615132
70
0
0
VERTEX
8
Layer 1
10
47.832859
20
68.198998
70
0
0
VERTEX
8
Layer 1
10
48.154322
20
68.675788
70
0
0
VERTEX
8
Layer 1
10
48.631114
20
68.997249
70
0
0
VERTEX
8
Layer 1
10
49.214980
20
69.115126
70
0
0
VERTEX
8
Layer 1
10
49.798846
20
68.997249
70
0
0
VERTEX
8
Layer 1
10
50.275638
20
68.675788
70
0
0
VERTEX
8
Layer 1
10
50.597101
20
68.198998
70
0
0
VERTEX
8
Layer 1
10
50.714980
20
67.615132
70
0
0
VERTEX
8
Layer 1
10
50.714980
20
67.615132
70
0
0
SEQEND
8
Layer 1
0
POLYLINE
8
Layer 1
62
7
70
0
10
0.000000
20
0.000000
66
1
0
VERTEX
8
Layer 1
10
50.714980
20
17.584330
70
0
0
VERTEX
8
Layer 1
10
50.600799
20
17.010305
70
0
0
VERTEX
8
Layer 1
10
50.275640
20
16.523670
70
0
0
VERTEX
8
Layer 1
10
49.789005
20
16.198511
70
0
0
VERTEX
8
Layer 1
10
49.214980
20
16.084330
70
0
0
VERTEX
8
Layer 1
10
48.640955
20
16.198511
70
0
0
VERTEX
8
Layer 1
10
48.154320
20
16.523670
70
0
0
VERTEX
8
Layer 1
10
47.829161
20
17.010305
70
0
0
VERTEX
8
Layer 1
10
47.714980
20
17.584330
70
0
0
VERTEX
8
Layer 1
10
47.829161
20
18.158355
70
0
0
VERTEX
8
Layer 1
10
48.154320
20
18.644990
70
0
0
VERTEX
8
Layer 1
10
48.640955
20
18.970149
70
0
0
VERTEX
8
Layer 1
10
49.214980
20
19.084330
70
0
0
VERTEX
8
Layer 1
10
49.789005
20
18.970149
70
0
0
VERTEX
8
Layer 1
10
50.275640
20
18.644990
70
0
0
VERTEX
8
Layer 1
10
50.600799
20
18.158355
70
0
0
VERTEX
8
Layer 1
10
50.714980
20
17.584330
70
0
0
VERTEX
8
Layer 1
10
50.714980
20
17.584330
70
0
0
SEQEND
8
Layer 1
0
POLYLINE
8
Layer 1
62
7
70
0
10
0.000000
20
0.000000
66
1
0
VERTEX
8
Layer 1
10
142.484980
20
67.615132
70
0
0
VERTEX
8
Layer 1
10
142.370799
20
67.041107
70
0
0
VERTEX
8
Layer 1
10
142.045640
20
66.554472
70
0
0
VERTEX
8
Layer 1
10
141.559005
20
66.229313
70
0
0
VERTEX
8
Layer 1
10
140.984980
20
66.115132
70
0
0
VERTEX
8
Layer 1
10
140.410955
20
66.229313
70
0
0
VERTEX
8
Layer 1
10
139.924320
20
66.554472
70
0
0
VERTEX
8
Layer 1
10
139.599161
20
67.041107
70
0
0
VERTEX
8
Layer 1
10
139.484980
20
67.615132
70
0
0
VERTEX
8
Layer 1
10
139.602859
20
68.198998
70
0
0
VERTEX
8
Layer 1
10
139.924322
20
68.675788
70
0
0
VERTEX
8
Layer 1
10
140.401114
20
68.997249
70
0
0
VERTEX
8
Layer 1
10
140.984980
20
69.115126
70
0
0
VERTEX
8
Layer 1
10
141.568846
20
68.997249
70
0
0
VERTEX
8
Layer 1
10
142.045638
20
68.675788
70
0
0
VERTEX
8
Layer 1
10
142.367101
20
68.198998
70
0
0
VERTEX
8
Layer 1
10
142.484980
20
67.615132
70
0
0
VERTEX
8
Layer 1
10
142.484980
20
67.615132
70
0
0
SEQEND
8
Layer 1
0
POLYLINE
8
Layer 1
62
7
70
0
10
0.000000
20
0.000000
66
1
0
VERTEX
8
Layer 1
10
142.484980
20
17.584330
70
0
0
VERTEX
8
Layer 1
10
142.370799
20
17.010305
70
0
0
VERTEX
8
Layer 1
10
142.045640
20
16.523670
70
0
0
VERTEX
8
Layer 1
10
141.559005
20
16.198511
70
0
0
VERTEX
8
Layer 1
10
140.984980
20
16.084330
70
0
0
VERTEX
8
Layer 1
10
140.410955
20
16.198511
70
0
0
VERTEX
8
Layer 1
10
139.924320
20
16.523670
70
0
0
VERTEX
8
Layer 1
10
139.599161
20
17.010305
70
0
0
VERTEX
8
Layer 1
10
139.484980
20
17.584330
70
0
0
VERTEX
8
Layer 1
10
139.599161
20
18.158355
70
0
0
VERTEX
8
Layer 1
10
139.924320
20
18.644990
70
0
0
VERTEX
8
Layer 1
10
140.410955
20
18.970149
70
0
0
VERTEX
8
Layer 1
10
140.984980
20
19.084330
70
0
0
VERTEX
8
Layer 1
10
141.559005
20
18.970149
70
0
0
VERTEX
8
Layer 1
10
142.045640
20
18.644990
70
0
0
VERTEX
8
Layer 1
10
142.370799
20
18.158355
70
0
0
VERTEX
8
Layer 1
10
142.484980
20
17.584330
70
0
0
VERTEX
8
Layer 1
10
142.484980
20
17.584330
70
0
0
SEQEND
8
Layer 1
 0 
ENDSEC
 0 
EOF